<?xml version="1.0" encoding="UTF-8"?>
<svg id="Layer_2" data-name="Layer 2" xmlns="http://www.w3.org/2000/svg" viewBox="0 0 3036.71 1192.56">
  <defs>
    <style>
      .cls-1 {
        fill: #fff;
      }

      .cls-2 {
        fill: #6a3dfc;
      }
    </style>
  </defs>
  <g id="Layer_1-2" data-name="Layer 1">
    <rect class="cls-2" width="3036.71" height="1192.56"/>
    <g>
      <path class="cls-1" d="M1044.73,547.75l71.97-39.8-152.02-91.85-158.16,91.85v177.11l155.1,91.4,155.08-91.4v-88.8l-71.97-41.89v-6.63Zm-3.33,94.22l-77.18-45.7-78.62,45.7v-91.4l77.9-46.4,77.9,46.4v91.4Z"/>
      <g>
        <path class="cls-1" d="M1312.83,560.61c-4.18-7.67-9.93-13.5-17.25-17.52-7.32-4.01-15.86-6.01-25.62-6.01-10.81,0-20.39,2.44-28.76,7.32-8.37,4.88-14.9,11.86-19.61,20.92-4.7,9.06-7.06,19.52-7.06,31.37s2.39,22.84,7.19,31.9c4.79,9.06,11.46,16.04,20,20.92,8.53,4.88,18.47,7.32,29.8,7.32,13.94,0,25.36-3.7,34.24-11.11,8.89-7.41,14.73-17.73,17.52-30.98h-62.74v-27.98h98.82v31.9c-2.44,12.72-7.67,24.49-15.68,35.29-8.02,10.81-18.35,19.48-30.98,26.01-12.64,6.53-26.8,9.8-42.48,9.8-17.61,0-33.51-3.96-47.71-11.9-14.21-7.93-25.36-18.95-33.46-33.07-8.11-14.12-12.16-30.15-12.16-48.1s4.05-34.03,12.16-48.23c8.1-14.2,19.25-25.27,33.46-33.2,14.2-7.93,30.02-11.89,47.45-11.89,20.57,0,38.43,5.01,53.6,15.03,15.16,10.03,25.62,24.1,31.37,42.22h-42.09Z"/>
        <path class="cls-1" d="M1441.58,547.8c7.59-4.36,16.25-6.54,26.01-6.54v38.43h-9.67c-11.5,0-20.17,2.7-26.01,8.1-5.84,5.4-8.76,14.82-8.76,28.24v72.15h-36.6v-144.83h36.6v22.48c4.71-7.67,10.85-13.68,18.43-18.04Z"/>
        <path class="cls-1" d="M1518.83,681.26c-11.16-6.19-19.91-14.94-26.28-26.28-6.36-11.33-9.54-24.4-9.54-39.21s3.27-27.88,9.81-39.21c6.53-11.33,15.46-20.08,26.8-26.27,11.32-6.19,23.96-9.28,37.9-9.28s26.57,3.1,37.91,9.28c11.32,6.19,20.26,14.95,26.8,26.27,6.53,11.33,9.8,24.4,9.8,39.21s-3.36,27.89-10.06,39.21c-6.71,11.33-15.78,20.09-27.19,26.28-11.42,6.19-24.18,9.28-38.3,9.28s-26.49-3.09-37.64-9.28Zm56.34-27.45c5.84-3.22,10.5-8.06,13.99-14.51,3.48-6.45,5.23-14.29,5.23-23.53,0-13.77-3.62-24.35-10.85-31.76-7.24-7.41-16.08-11.11-26.54-11.11s-19.22,3.7-26.28,11.11c-7.06,7.41-10.59,18-10.59,31.76s3.44,24.36,10.33,31.76c6.88,7.41,15.55,11.11,26.01,11.11,6.62,0,12.85-1.61,18.69-4.83Z"/>
        <path class="cls-1" d="M1859.73,543.35l-42.35,144.83h-39.48l-26.4-101.17-26.4,101.17h-39.74l-42.62-144.83h37.12l25.62,110.32,27.71-110.32h38.7l27.18,110.06,25.62-110.06h35.03Z"/>
        <path class="cls-1" d="M1939.99,654.46l36.6-111.11h38.95l-53.59,144.83h-44.44l-53.33-144.83h39.22l36.6,111.11Z"/>
        <path class="cls-1" d="M2038.69,519.96c-4.27-4.09-6.41-9.19-6.41-15.29s2.13-11.2,6.41-15.29c4.27-4.09,9.63-6.14,16.08-6.14s11.8,2.05,16.08,6.14c4.27,4.1,6.41,9.2,6.41,15.29s-2.14,11.2-6.41,15.29c-4.27,4.1-9.63,6.14-16.08,6.14s-11.81-2.05-16.08-6.14Zm34.12,23.4v144.83h-36.6v-144.83h36.6Z"/>
        <path class="cls-1" d="M2188.88,688.19l-29.8-44.96-26.4,44.96h-39.22l47.32-72.68-47.84-72.15h41.3l29.54,44.7,26.66-44.7h39.22l-47.58,72.15,48.1,72.68h-41.3Z"/>
      </g>
    </g>
  </g>
</svg>