<?xml version="1.0" encoding="UTF-8"?>
<svg id="Layer_2" data-name="Layer 2" xmlns="http://www.w3.org/2000/svg" viewBox="0 0 530.53 134.29">
  <defs>
    <style>
      .cls-1 {
        fill: #6045ff;
      }

      .cls-2 {
        fill: #190e41;
      }
    </style>
  </defs>
  <g id="Layer_1-2" data-name="Layer 1">
    <g>
      <g>
        <path class="cls-2" d="M188.68,53.86c-1.56-2.86-3.7-5.03-6.43-6.53-2.73-1.49-5.91-2.24-9.55-2.24-4.03,0-7.6,.91-10.72,2.73-3.12,1.82-5.55,4.42-7.31,7.79-1.75,3.38-2.63,7.28-2.63,11.69s.89,8.51,2.68,11.89c1.79,3.38,4.27,5.98,7.45,7.79,3.18,1.82,6.88,2.73,11.11,2.73,5.19,0,9.45-1.38,12.76-4.14,3.31-2.76,5.49-6.61,6.53-11.54h-23.38v-10.43h36.82v11.89c-.91,4.74-2.86,9.13-5.84,13.15-2.99,4.03-6.84,7.26-11.55,9.69-4.71,2.44-9.99,3.65-15.83,3.65-6.56,0-12.49-1.48-17.78-4.43-5.29-2.95-9.45-7.06-12.47-12.32-3.02-5.26-4.53-11.24-4.53-17.93s1.51-12.68,4.53-17.97c3.02-5.29,7.18-9.42,12.47-12.37,5.29-2.95,11.19-4.43,17.68-4.43,7.66,0,14.32,1.87,19.97,5.6,5.65,3.74,9.55,8.98,11.69,15.73h-15.69Z"/>
        <path class="cls-2" d="M236.66,49.08c2.83-1.62,6.06-2.44,9.69-2.44v14.32h-3.61c-4.29,0-7.52,1.01-9.69,3.02-2.18,2.01-3.26,5.52-3.26,10.52v26.89h-13.64V47.43h13.64v8.38c1.75-2.86,4.04-5.1,6.87-6.72Z"/>
        <path class="cls-2" d="M265.45,98.82c-4.16-2.31-7.42-5.57-9.79-9.79-2.37-4.22-3.56-9.09-3.56-14.61s1.22-10.39,3.65-14.61c2.44-4.22,5.76-7.48,9.99-9.79,4.22-2.31,8.93-3.46,14.13-3.46s9.9,1.15,14.13,3.46c4.22,2.31,7.55,5.57,9.99,9.79,2.44,4.22,3.65,9.09,3.65,14.61s-1.25,10.39-3.75,14.61c-2.5,4.22-5.88,7.49-10.13,9.79-4.25,2.31-9.01,3.46-14.27,3.46s-9.87-1.15-14.03-3.46Zm20.99-10.23c2.18-1.2,3.91-3,5.21-5.41,1.3-2.4,1.95-5.32,1.95-8.77,0-5.13-1.35-9.08-4.04-11.84-2.7-2.76-5.99-4.14-9.89-4.14s-7.16,1.38-9.79,4.14c-2.63,2.76-3.95,6.71-3.95,11.84s1.28,9.08,3.85,11.84c2.57,2.76,5.8,4.14,9.69,4.14,2.47,0,4.79-.6,6.97-1.8Z"/>
        <path class="cls-2" d="M392.48,47.43l-15.78,53.97h-14.71l-9.84-37.7-9.84,37.7h-14.81l-15.88-53.97h13.83l9.55,41.11,10.33-41.11h14.42l10.13,41.01,9.55-41.01h13.05Z"/>
        <path class="cls-2" d="M422.39,88.83l13.64-41.4h14.52l-19.97,53.97h-16.56l-19.87-53.97h14.61l13.64,41.4Z"/>
        <path class="cls-2" d="M459.17,38.71c-1.59-1.53-2.39-3.43-2.39-5.7s.79-4.17,2.39-5.7c1.59-1.53,3.59-2.29,5.99-2.29s4.4,.76,5.99,2.29c1.59,1.53,2.39,3.43,2.39,5.7s-.8,4.17-2.39,5.7c-1.59,1.53-3.59,2.29-5.99,2.29s-4.4-.76-5.99-2.29Zm12.71,8.72v53.97h-13.64V47.43h13.64Z"/>
        <path class="cls-2" d="M515.14,101.4l-11.11-16.76-9.84,16.76h-14.61l17.63-27.08-17.83-26.89h15.39l11.01,16.66,9.94-16.66h14.61l-17.73,26.89,17.92,27.08h-15.39Z"/>
      </g>
      <path class="cls-1" d="M88.77,49.06l26.82-14.83L58.94,0,0,34.23V100.23l57.8,34.06,57.79-34.06v-33.09l-26.82-15.61v-2.47Zm-1.24,35.11l-28.76-17.03-29.3,17.03V50.11l29.03-17.29,29.03,17.29v34.06Z"/>
    </g>
  </g>
</svg>