<?xml version="1.0" encoding="UTF-8"?>
<svg id="Layer_2" data-name="Layer 2" xmlns="http://www.w3.org/2000/svg" viewBox="0 0 383.03 96.96">
  <defs>
    <style>
      .cls-1 {
        fill: #fff;
      }
    </style>
  </defs>
  <g id="Layer_1-2" data-name="Layer 1">
    <path class="cls-1" d="M64.09,35.42l19.36-10.71L42.55,0,0,24.71v47.65l41.73,24.59,41.72-24.59v-23.89l-19.36-11.27v-1.78Zm-.9,25.35l-20.76-12.3-21.15,12.3v-24.59l20.96-12.48,20.96,12.48v24.59Z"/>
    <g>
      <path class="cls-1" d="M136.22,38.88c-1.12-2.06-2.67-3.63-4.64-4.71-1.97-1.08-4.27-1.62-6.89-1.62-2.91,0-5.49,.66-7.74,1.97-2.25,1.31-4.01,3.19-5.28,5.63-1.27,2.44-1.9,5.25-1.9,8.44s.64,6.14,1.93,8.58c1.29,2.44,3.08,4.31,5.38,5.63,2.3,1.31,4.97,1.97,8.02,1.97,3.75,0,6.82-1,9.21-2.99,2.39-1.99,3.96-4.77,4.71-8.34h-16.88v-7.53h26.59v8.58c-.66,3.42-2.06,6.59-4.22,9.5-2.16,2.91-4.94,5.24-8.34,7-3.4,1.76-7.21,2.64-11.43,2.64-4.74,0-9.02-1.07-12.84-3.2-3.82-2.13-6.82-5.1-9-8.9-2.18-3.8-3.27-8.11-3.27-12.94s1.09-9.15,3.27-12.98c2.18-3.82,5.18-6.8,9-8.93,3.82-2.13,8.08-3.2,12.77-3.2,5.53,0,10.34,1.35,14.42,4.04,4.08,2.7,6.89,6.48,8.44,11.36h-11.32Z"/>
      <path class="cls-1" d="M170.86,35.43c2.04-1.17,4.37-1.76,7-1.76v10.34h-2.6c-3.09,0-5.43,.73-7,2.18-1.57,1.45-2.36,3.99-2.36,7.6v19.41h-9.85V34.24h9.85v6.05c1.27-2.06,2.92-3.68,4.96-4.85Z"/>
      <path class="cls-1" d="M191.65,71.34c-3-1.66-5.36-4.02-7.07-7.07-1.71-3.05-2.57-6.56-2.57-10.55s.88-7.5,2.64-10.55c1.76-3.05,4.16-5.4,7.21-7.07,3.05-1.66,6.45-2.5,10.2-2.5s7.15,.83,10.2,2.5c3.05,1.66,5.45,4.02,7.21,7.07,1.76,3.05,2.64,6.57,2.64,10.55s-.9,7.5-2.71,10.55c-1.81,3.05-4.24,5.41-7.32,7.07-3.07,1.66-6.51,2.5-10.31,2.5s-7.13-.83-10.13-2.5Zm15.16-7.39c1.57-.87,2.82-2.17,3.76-3.9,.94-1.73,1.41-3.84,1.41-6.33,0-3.7-.97-6.55-2.92-8.55-1.95-1.99-4.33-2.99-7.14-2.99s-5.17,1-7.07,2.99c-1.9,1.99-2.85,4.84-2.85,8.55s.93,6.55,2.78,8.55c1.85,1.99,4.19,2.99,7,2.99,1.78,0,3.46-.43,5.03-1.3Z"/>
      <path class="cls-1" d="M283.37,34.24l-11.39,38.97h-10.62l-7.1-27.22-7.1,27.22h-10.69l-11.47-38.97h9.99l6.89,29.68,7.46-29.68h10.41l7.31,29.61,6.89-29.61h9.42Z"/>
      <path class="cls-1" d="M304.96,64.13l9.85-29.89h10.48l-14.42,38.97h-11.96l-14.35-38.97h10.55l9.85,29.89Z"/>
      <path class="cls-1" d="M331.51,27.94c-1.15-1.1-1.72-2.47-1.72-4.11s.57-3.01,1.72-4.11c1.15-1.1,2.59-1.65,4.33-1.65s3.18,.55,4.33,1.65c1.15,1.1,1.72,2.47,1.72,4.11s-.58,3.01-1.72,4.11c-1.15,1.1-2.59,1.65-4.33,1.65s-3.18-.55-4.33-1.65Zm9.18,6.3v38.97h-9.85V34.24h9.85Z"/>
      <path class="cls-1" d="M371.92,73.21l-8.02-12.1-7.1,12.1h-10.55l12.73-19.55-12.87-19.41h11.11l7.95,12.03,7.17-12.03h10.55l-12.8,19.41,12.94,19.55h-11.11Z"/>
    </g>
  </g>
</svg>